PathFileType	4	(X/Y/Z)	C:/Users/beibeiliu/ov580/test_trc/capture2\sequence.5_training_dense_left.trc
DataRate	CameraRate	NumFrames	NumMarkers	Units	OrigDataRate	OrigDataStartFrame	OrigNumFrames
120	120	21	19	mm	120	263	350
Frame#	Time	ThumbCMC			ThumbMCP			ThumbIP			ThumbTip			IndexMCP			IndexPIP			IndexTip			MiddleMCP			MiddlePIP			MiddleTip			RingMCP			RingPIP			RingTip			PinkyMCP			PinkyPIP			PinkyTip			BackHand1			BackHand2			BackHand3	
		X0	Y0	Z0	X1	Y1	Z1	X2	Y2	Z2	X3	Y3	Z3	X4	Y4	Z4	X5	Y5	Z5	X6	Y6	Z6	X7	Y7	Z7	X8	Y8	Z8	X9	Y9	Z9	X10	Y10	Z10	X11	Y11	Z11	X12	Y12	Z12	X13	Y13	Z13	X14	Y14	Z14	X15	Y15	Z15	X16	Y16	Z16	X17	Y17	Z17	X18	Y18	Z18	
262	2.18333	-131.077	-15.8431	-30.084	-146.211	-26.0084	-59.4913	-152.008	-31.2122	-83.2835	-156.68	-18.3819	-112.688	-110.19	-9.85314	-101.923	-118.72	-24.6271	-124.254	-132.866	-27.5318	-148.025	-130.342	7.16107	-102.873	-158.976	-8.89682	-104.11	-158.589	-4.81573	-66.063	-150.285	18.3946	-96.5168	-172.132	1.73258	-79.9642	-157.492	2.378	-51.7498	-161.192	31.1111	-89.0858	-174.111	13.3889	-66.1879	-156.719	14.6506	-42.8653	-119.761	40.8219	-52.3511	-125.012	45.3807	-19.6275	-109.671	16.7949	-33.6925	
263	2.19167	-129.821	-17.4537	-31.5773	-144.415	-29.016	-63.1832	-149.521	-30.7681	-89.9588	-153.764	-17.7976	-111.997	-108.474	-9.9652	-102.716	-117.788	-20.1577	-127.261	-129.113	-27.2107	-147.189	-130.114	9.16823	-105.308	-159.73	-7.06786	-104.923	-155.271	-5.19952	-65.8234	-147.493	17.2816	-98.0552	-171.348	3.49155	-84.565	-155.628	2.9645	-53.6083	-158.637	31.8685	-88.4786	-171.15	11.9949	-69.1704	-152.988	17.1093	-43.5684	-123.539	44.9539	-56.368	-127.019	45.7225	-22.0377	-106.956	15.3061	-38.9381	
264	2.2	-129.285	-11.3855	-33.8698	-143.252	-25.45	-60.4992	-145.988	-28.5188	-93.9624	-150.836	-18.2023	-113.749	-106.4	-0.759446	-104.948	-110.417	-13.3299	-125.248	-121.198	-18.1407	-149.979	-132.057	13.1689	-110.393	-155.163	-6.64895	-107.547	-152.978	-7.1886	-71.0967	-147.922	22.3832	-99.1989	-167.039	1.05506	-85.5675	-153.315	4.10501	-56.5211	-161.581	31.606	-91.0457	-172.416	13.5886	-73.2084	-153.876	16.8075	-49.2848	-122.773	44.3196	-56.8532	-127.687	46.3719	-25.9718	-107.105	20.9462	-36.5898	
265	2.20833	-125.22	-11.5627	-40.2657	-139.716	-21.7187	-64.2616	-141.262	-28.0152	-92.6994	-145.906	-13.8127	-115.538	-102.235	7.08025	-102.004	-103.906	-2.95076	-132.037	-110.887	-5.57589	-153.421	-126.522	16.3335	-108.971	-153.034	-0.298487	-112.092	-151.497	-3.63651	-73.7078	-146.79	21.2067	-102.186	-167.536	4.57456	-86.7181	-153.2	6.6469	-58.7067	-159.288	34.9003	-92.574	-169.034	13.2563	-72.2143	-150.422	20.5407	-49.1968	-123.335	50.4177	-55.9254	-127.365	49.7385	-27.3822	-105.194	22.4828	-38.4975	
266	2.21667	-122.608	-8.29039	-42.1451	-134.3	-17.8623	-69.1357	-135.789	-22.4457	-95.8232	-141.206	-8.44431	-118.663	-98.3656	16.6815	-102.797	-95.102	10.4197	-128.326	-98.3862	8.59955	-154.047	-126.752	24.2662	-111.303	-149.842	1.57205	-114.045	-147.664	-1.71402	-74.303	-144.491	26.4584	-103.628	-163.985	5.76132	-90.8085	-148.834	11.4968	-56.9481	-159.074	34.2542	-94.3907	-169.372	13.7208	-74.3591	-149.326	19.9265	-51.0918	-123.3	53.4246	-59.0426	-133.101	52.32	-26.0984	-106.922	27.1136	-38.3366	
267	2.225	-119.724	-5.31047	-43.2825	-128.372	-17.7836	-73.1276	-131.935	-17.1033	-97.2821	-136.432	-5.16065	-123.487	-93.3771	24.4462	-102.44	-89.5094	22.4728	-132.378	-91.7421	26.2091	-159.028	-124.537	26.567	-115.215	-144.937	5.70953	-117.482	-144.275	-1.9729	-79.3925	-145.278	33.1439	-104.385	-160.175	5.92241	-91.5133	-149.153	10.9438	-61.6758	-155.978	38.0717	-95.3564	-165.983	15.0173	-79.1128	-149.76	20.7256	-52.2905	-127.851	59.7016	-58.404	-135.036	53.7621	-25.0663	-108.385	31.9626	-39.312	
268	2.23333	-115.446	-2.69066	-43.1869	-124.215	-11.3211	-73.8035	-123.843	-13.5097	-104.571	-131.456	-1.43355	-122.729	-88.2369	30.6494	-106.425	-85.262	33.062	-127.142	-84.111	39.5694	-157.333	-122.846	33.3451	-114.983	-144.215	8.40841	-116.416	-142.858	0.958953	-84.0537	-144.568	35.6416	-105.721	-155.676	9.55378	-95.246	-146.268	12.441	-65.7899	-159.113	42.1599	-97.2573	-162.83	16.9602	-82.2438	-145.278	24.9695	-54.6515	-127.149	62.3953	-57.6022	-133.106	54.2669	-24.2134	-106.363	38.4625	-42.895	
269	2.24167	-111.704	-2.49263	-42.5858	-117.881	-11.8754	-77.0319	-119.574	-9.50272	-102.744	-127.058	4.94301	-128.124	-88.8392	37.1429	-102.29	-84.2354	42.9397	-127.323	-79.9413	48.0756	-152.365	-120.893	39.864	-112.011	-139.091	14.9736	-121.256	-140.662	4.55029	-85.2777	-139.122	35.2812	-107.864	-152.509	9.56129	-94.8162	-142.574	17.5561	-62.2571	-155.294	46.0196	-96.749	-161.646	18.7555	-83.2956	-148.227	23.9731	-55.937	-128.045	61.8598	-56.4289	-129.71	54.916	-25.1385	-104.426	36.1013	-39.0036	
270	2.25	-111.8	4.67275	-44.4211	-114.643	-8.43683	-78.6485	-115.7	-6.99826	-105.732	-122.83	5.33964	-126.599	-86.3077	44.1336	-102.542	-83.84	50.7107	-126.797	-79.0158	57.2279	-149.864	-117.282	39.6044	-116.111	-136.357	16.5952	-121.898	-134.604	7.4129	-83.0338	-137.307	39.2109	-107.445	-153.553	14.1546	-98.7867	-137.883	17.9507	-64.0566	-153.34	48.0091	-96.7003	-158.216	20.5013	-87.4294	-144.431	25.9892	-53.4661	-127.365	64.5381	-57.0455	-132.712	55.7197	-26.1177	-103.545	42.2985	-39.8411	
271	2.25833	-107.852	5.13433	-45.6117	-111.633	-7.20245	-79.3372	-112.905	-5.8094	-105.59	-122.297	10.1584	-124.215	-83.2489	47.1678	-103.828	-79.0701	51.7474	-127.225	-77.5761	63.1541	-152.021	-117.647	42.2463	-116.294	-130.653	16.2823	-122.295	-133.309	6.35258	-86.8054	-135.433	41.9328	-105.469	-146.604	13.1858	-98.0791	-139.592	18.6152	-65.5555	-150.487	46.345	-96.8076	-157.293	19.3511	-82.551	-141.78	29.2941	-55.2312	-127.728	67.3652	-59.1609	-130.901	57.2931	-25.5603	-104.08	42.9789	-42.1567	
272	2.26667	-106.773	4.23978	-43.5309	-112.032	-4.34803	-74.5422	-111.16	-2.0154	-107.842	-118.273	7.54992	-123.882	-86.4548	50.3681	-100.612	-79.1687	53.422	-123.548	-78.2781	64.5865	-147.454	-115.614	44.1481	-115.451	-133.177	17.0523	-118.328	-130.686	7.59472	-86.66	-134.917	40.3942	-107.78	-144.977	15.0519	-101.101	-135.671	17.9048	-66.8369	-150.67	49.696	-97.3174	-156.685	20.7155	-85.4347	-146.052	26.5705	-57.0707	-127.895	67.8882	-54.4759	-129.869	57.2765	-23.4538	-103.105	42.8895	-39.2895	
273	2.275	-104.782	5.52823	-45.2838	-111.595	-5.26976	-73.9259	-111.714	-0.745598	-103.969	-117.811	8.83727	-123.755	-81.3064	46.2484	-98.2084	-75.6048	51.7686	-123.849	-72.1439	61.4906	-148.526	-111.965	44.2791	-112.158	-130.574	20.3016	-121.674	-129.584	7.20073	-85.932	-135.787	42.3135	-108.549	-143.572	15.4225	-101.456	-134.969	19.0934	-65.0023	-147.672	49.8248	-96.9619	-156.358	20.5837	-85.1221	-142.441	22.4234	-58.0216	-125.453	67.5348	-53.8568	-130.133	57.2648	-23.6311	-104.168	44.9798	-39.6357	
274	2.28333	-107.3	5.98299	-44.0498	-109.854	-7.94558	-74.8766	-109.101	-4.88345	-105.812	-116.403	7.39484	-125.902	-83.8615	47.6556	-100.053	-76.9422	51.9033	-123.809	-72.7338	61.7642	-149.23	-110.238	43.8995	-113.028	-125.908	15.9881	-120.6	-129.346	6.93389	-85.8713	-134.902	42.9602	-107.407	-146.083	16.0784	-99.9472	-137.219	18.4908	-66.3452	-149.73	48.0399	-98.7967	-156.021	21.7533	-85.8377	-141.844	24.7383	-55.3214	-122.178	64.6219	-56.2336	-127.823	57.3606	-27.8869	-101.86	43.6739	-36.8134	
275	2.29167	-103.846	3.79735	-45.1039	-109.26	-7.40716	-75.7086	-108.338	-3.89854	-105.834	-116.62	12.0576	-128.481	-78.1097	45.4647	-99.6231	-71.2465	49.9186	-127.356	-68.5979	59.0599	-149.63	-110.447	42.8437	-114.384	-125.496	15.2969	-119.129	-131.047	12.2255	-83.5377	-129.236	43.6913	-106.232	-144.839	16.0863	-99.1433	-133.266	19.71	-64.7287	-144.179	49.3103	-98.0486	-151.832	22.1811	-87.3913	-139.065	28.1568	-57.069	-123.423	66.8507	-56.9892	-127.862	61.0333	-27.566	-98.9695	42.9512	-40.5261	
276	2.3	-107.056	6.59656	-43.1568	-109.494	-5.77141	-76.0818	-110.01	-2.58066	-102.03	-115.93	11.8401	-125.041	-76.363	45.1283	-102.776	-72.2102	48.6775	-122.347	-69.2393	54.8234	-147.641	-109.304	42.957	-114.95	-126.013	17.0875	-119.658	-128.738	10.6911	-81.8648	-132.757	43.8273	-106.484	-146.028	17.0737	-99.4757	-135.25	18.0154	-66.843	-146.41	46.2038	-100.07	-154.959	22.2642	-87.0598	-140.316	28.6191	-56.1625	-120.696	67.2815	-56.4921	-127.786	59.5086	-28.0704	-98.297	43.9503	-38.5673	
277	2.30833	-107.097	4.8247	-42.2244	-111.442	-3.12737	-74.994	-111.286	-1.54941	-102.949	-116.957	10.4952	-124.726	-77.4969	44.7983	-103.406	-70.4393	45.7226	-126.821	-66.6028	50.7175	-152.663	-110.174	44.5591	-112.164	-126.867	19.5625	-120.896	-129.575	12.2111	-80.875	-130.259	42.2512	-107.395	-147.199	17.3658	-99.6498	-133.137	18.9461	-66.25	-146.487	48.1115	-98.4495	-149.364	21.3651	-85.9429	-141.048	28.4182	-54.5295	-125.126	68.2599	-56.7562	-129.298	58.7689	-26.3108	-101.858	45.4464	-41.8541	
278	2.31667	-106.703	5.11647	-42.2052	-109.481	-6.69817	-76.8697	-109.296	-2.94102	-104.971	-116.43	10.2737	-128.064	-76.702	43.4748	-103.522	-72.532	43.5445	-128.449	-68.6022	47.0327	-152.956	-107.957	42.7775	-113.138	-127.551	17.4562	-119.785	-130.78	12.2159	-83.1122	-133.369	44.074	-106.706	-146.719	16.471	-97.4381	-137.631	18.8902	-65.7945	-149.817	49.8141	-98.5551	-149.781	20.9872	-84.6962	-139.95	27.7202	-58.1824	-127.057	68.4594	-57.2436	-129.32	59.8513	-25.0089	-100.477	44.9288	-41.7445	
279	2.325	-106.036	6.33044	-44.1845	-113.309	-2.13458	-75.2113	-110.389	-3.69467	-106.705	-118.054	9.83986	-127.225	-79.1791	43.6173	-105.544	-73.3208	39.5262	-128.125	-72.618	42.4136	-156.453	-111.785	42.9116	-115.253	-128.84	17.6981	-118.899	-132.401	12.1519	-82.7577	-134.39	42.8254	-108.256	-146.833	15.714	-96.8449	-135.913	20.2284	-66.0593	-149.801	48.3209	-98.1973	-155.972	22.8196	-87.2882	-145.324	29.4631	-55.9351	-122.228	67.4602	-59.5176	-132.003	63.608	-27.3162	-101.928	47.568	-37.8189	
280	2.33333	-107.408	7.04584	-42.5742	-112.514	-3.4894	-76.3228	-113.269	1.41613	-103.547	-118.323	7.94433	-125.505	-82.687	42.4398	-104.261	-80.28	40.4495	-128.931	-77.6693	37.7975	-153.447	-109.888	41.9004	-113.999	-128.161	19.5341	-121.526	-130.668	9.92558	-83.4953	-134.297	45.3033	-107.027	-144.996	14.4101	-97.0066	-138.774	21.9881	-64.6583	-150.51	48.5362	-99.1116	-156.292	21.9724	-84.9787	-144.233	29.5642	-56.2807	-125.855	69.5904	-58.6752	-135.683	63.7744	-25.0521	-105.858	49.0785	-38.3674	
281	2.34167	-109.614	11.8268	-45.2421	-111.912	-2.451	-78.2888	-114.133	-0.893817	-102.526	-121.078	12.6404	-124.023	-85.1842	42.3416	-105.839	-79.3736	35.9236	-133.119	-80.3983	32.6349	-158.05	-112.327	42.6288	-117.182	-130.545	17.0626	-118.71	-134.823	13.983	-84.7858	-135.419	41.4092	-109.714	-148.793	16.7986	-98.9634	-135.154	21.3483	-66.159	-154.026	50.6877	-98.8879	-153.314	21.6829	-84.8746	-142.691	32.9274	-55.6089	-127.266	69.2881	-61.0229	-135.401	64.1576	-28.0081	-106.534	49.9551	-41.2687	
282	2.35	-106.229	11.4795	-48.5866	-114.507	-0.395506	-75.633	-113.433	-2.1542	-103.714	-121.922	12.261	-129.074	-83.1774	42.14	-110.273	-80.945	35.0579	-132.247	-82.918	31.6782	-161.488	-116.643	45.2336	-118.19	-129.52	17.7126	-121.182	-134.884	13.6649	-86.837	-135.018	42.3908	-111.112	-146.015	16.5454	-99.1076	-139.39	25.1667	-64.4756	-150.916	47.8895	-101.045	-156.396	22.8382	-83.7973	-142.236	33.1326	-56.99	-125.237	72.8362	-61.6468	-137.327	66.7745	-30.1513	-102.191	51.677	-42.6245	
